<svg width="144" height="99" viewBox="0 0 144 99" fill="none" xmlns="http://www.w3.org/2000/svg">
<g clip-path="url(#clip0_2:5)">
<path d="M12.528 79.487V86.3739H4.752V79.487H1.44V96.5609H4.752V89.8174H12.528V96.5609H15.84V79.487H12.528ZM88.272 79.3435C90.576 79.3435 92.808 80.2761 94.464 81.8543L94.608 81.9978L92.16 84.437L92.016 84.2935C91.008 83.2891 89.712 82.787 88.272 82.787C85.32 82.787 83.016 85.1543 83.016 88.0239C83.016 90.9652 85.392 93.2609 88.272 93.2609C89.64 93.2609 91.008 92.687 92.016 91.7543L92.16 91.6109L94.608 94.05L94.464 94.1935C92.808 95.8435 90.648 96.7043 88.272 96.7043C83.448 96.7043 79.56 92.8304 79.56 88.0239C79.488 83.2174 83.448 79.3435 88.272 79.3435ZM26.928 79.3435C31.752 79.3435 35.64 83.2174 35.64 88.0239C35.64 92.8304 31.752 96.7043 26.928 96.7043C22.104 96.7043 18.216 92.8304 18.216 88.0239C18.216 83.2174 22.104 79.3435 26.928 79.3435ZM26.928 82.7152C23.976 82.7152 21.672 85.0826 21.672 87.9522C21.672 90.8935 24.048 93.1891 26.928 93.1891C29.88 93.1891 32.184 90.8217 32.184 87.9522C32.184 85.0826 29.88 82.7152 26.928 82.7152ZM134.352 96.5609V90.0326H140.544V86.8043H134.352V82.4283H142.56V79.487H131.04V96.5609H134.352V96.5609ZM119.448 93.6196V89.7457H125.64V86.5174H119.448V82.4283H127.8V79.487H116.136V96.5609H128.016V93.6196H119.448ZM108.864 79.487V86.3739H101.088V79.487H97.776V96.5609H101.088V89.8174H108.864V96.5609H112.176V79.487H108.864ZM61.776 93.6196V89.7457H68.4V86.5174H61.776V82.4283H70.128V79.487H58.392V96.5609H70.272V93.6196H61.776ZM38.016 79.2V83.7196V96.5609H41.328V87.163L46.224 92.1848L51.12 87.163V96.5609H54.432V83.7196V79.2L46.224 87.6652L38.016 79.2Z" fill="black"/>
<path d="M104.976 17.5043L71.928 0.717392L39.096 17.2174C38.952 17.2891 38.88 17.4326 38.88 17.5761V71.5956H105.12V17.7196C105.12 17.7196 105.12 17.5043 104.976 17.5043ZM102.024 68.5826H83.592C83.448 67.363 83.376 65.4978 83.304 64.1348C82.944 58.1087 83.664 42.7565 83.52 19.3696C83.52 18.5804 82.584 18.2217 82.08 18.7957C78.912 22.7413 77.256 26.5435 76.464 35.5109C76.032 40.3174 78.84 49.4283 79.632 56.2435C80.064 59.9739 79.92 63.9196 79.488 68.5826H66.816C66.744 67.1478 66.672 65.713 66.6 64.35C66.312 58.6826 66.096 52.9435 65.88 47.2761C65.808 46.2 65.736 44.6217 66.312 43.6174C66.528 43.2587 66.816 42.9 67.032 42.5413C67.464 41.8956 67.752 41.1065 68.04 40.3891C68.688 38.4522 69.192 36.3 69.264 34.2196C69.264 34.1478 69.264 34.1478 69.264 34.1478V34.0761C69.264 33.9326 69.264 33.7891 69.264 33.5739V33.5022L68.472 20.0152C68.472 19.513 68.184 19.1543 67.752 19.1543C67.32 19.1543 66.888 19.5848 66.888 20.087L66.456 35.5826C66.456 35.9413 66.168 36.2283 65.88 36.2283C65.52 36.2283 65.376 36.013 65.376 35.5826L65.016 19.9435C65.016 19.7283 64.728 19.1543 64.152 19.1543C63.576 19.1543 63.432 19.8717 63.432 20.087L62.856 35.5109C62.856 35.8696 62.568 36.1565 62.28 36.1565C61.92 36.1565 61.776 35.8696 61.776 35.4391L61.56 20.087C61.56 19.5848 61.128 19.1543 60.696 19.1543C60.264 19.1543 59.976 19.5848 59.976 20.087L59.04 33.5022V33.5739C59.04 33.7174 59.04 33.8609 59.04 34.0761V34.2196C59.112 36.3 59.616 38.4522 60.264 40.3891C60.552 41.1065 60.84 41.8956 61.272 42.5413C61.488 42.9 61.776 43.2587 61.992 43.6174C62.568 44.6217 62.496 46.1283 62.424 47.2761C62.208 52.9435 61.92 58.6826 61.704 64.35C61.632 65.7848 61.56 67.2196 61.488 68.5826H41.904V19.2261L71.928 4.16087L102.024 19.4413V68.5826Z" fill="black"/>
<path d="M141.048 95.1978H140.472V94.9826H141.84V95.1978H141.264V96.7044H141.048V95.1978V95.1978ZM142.2 94.9826H142.488L143.136 95.9152L143.784 94.9826H144.072V96.7044H143.856V95.413L143.208 96.3457L142.56 95.413V96.7761H142.344V94.9826H142.2Z" fill="black"/>
</g>
<defs>
<clipPath id="clip0_2:5">
<rect width="144" height="99" fill="white"/>
</clipPath>
</defs>
</svg>
